<svg width="24" height="24" viewBox="0 0 24 24" fill="none" xmlns="http://www.w3.org/2000/svg">
<path d="M0.0255 12.501C0.291 18.8842 5.55225 24 12 24C18.4478 24 23.709 18.8842 23.9745 12.501C23.9903 12.4608 23.9989 12.4182 24 12.375C24 12.348 23.9903 12.3247 23.985 12.3C23.9873 12.1995 24 12.1012 24 12C24 5.3835 18.6165 0 12 0C5.3835 0 0 5.3835 0 12C0 12.1012 0.01275 12.1995 0.015 12.3C0.00975 12.3247 0 12.348 0 12.375C0 12.42 0.01125 12.4612 0.0255 12.501ZM18.6908 17.0565C17.6717 16.6335 16.6126 16.3141 15.5295 16.1033C15.648 15.0135 15.7177 13.8818 15.7395 12.7507H19.4745C19.4062 14.2912 19.1325 15.7455 18.6908 17.0565ZM20.2238 12.75H23.2118C23.0795 14.792 22.3886 16.7584 21.2145 18.4342C20.6312 18.0238 20.0149 17.6626 19.3717 17.3542C19.8555 15.9525 20.1533 14.397 20.2238 12.75ZM9.29175 16.7145C10.1876 16.5732 11.0931 16.5015 12 16.5C12.918 16.5 13.8248 16.5765 14.7075 16.7145C14.187 20.7158 13.05 23.25 12 23.25C10.95 23.25 9.813 20.7158 9.29175 16.7145ZM10.431 22.998C8.36775 22.3365 6.6225 20.3948 5.5695 17.76C6.53402 17.3566 7.53652 17.0508 8.562 16.8472C8.90625 19.4692 9.5355 21.7537 10.431 22.998ZM9.2055 8.03175C10.1301 8.17575 11.0643 8.24871 12 8.25C12.9357 8.24871 13.8699 8.17575 14.7945 8.03175C14.9235 9.24675 15 10.5728 15 12H9C9 10.5728 9.0765 9.24675 9.2055 8.03175ZM14.9888 12.75C14.9708 13.8251 14.9058 14.8989 14.7938 15.9683C13.8694 15.8242 12.9355 15.7512 12 15.75C11.0643 15.7513 10.1301 15.8242 9.2055 15.9683C9.09313 14.8989 9.02807 13.8251 9.0105 12.75H14.9888ZM15.4387 16.8472C16.4917 17.0588 17.496 17.3663 18.4313 17.76C17.3783 20.3948 15.633 22.3365 13.5697 22.998C14.4645 21.7537 15.0937 19.4692 15.4387 16.8472ZM15.75 12C15.75 10.623 15.6735 9.228 15.5295 7.8975C16.6395 7.6785 17.7015 7.3575 18.6908 6.94425C19.2038 8.466 19.5 10.1805 19.5 12H15.75ZM15.4387 7.15275C15.0937 4.53075 14.4652 2.2455 13.569 1.002C15.6322 1.6635 17.3775 3.60525 18.4305 6.24C17.4664 6.64375 16.4641 6.94954 15.4387 7.15275ZM14.7083 7.2855C13.8247 7.4235 12.918 7.5 12 7.5C11.082 7.5 10.1753 7.4235 9.29175 7.2855C9.813 3.28425 10.95 0.75 12 0.75C13.05 0.75 14.187 3.28425 14.7083 7.2855ZM8.56125 7.15275C7.5358 6.94908 6.53331 6.64331 5.56875 6.24C6.62175 3.60525 8.367 1.6635 10.4303 1.002C9.5355 2.24625 8.90625 4.53075 8.56125 7.15275ZM8.4705 7.8975C8.32401 9.2601 8.25041 10.6295 8.25 12H4.5C4.5 10.1805 4.79625 8.466 5.30925 6.9435C6.2985 7.3575 7.3605 7.67775 8.4705 7.8975ZM8.2605 12.75C8.28225 13.881 8.352 15.0128 8.4705 16.1033C7.3605 16.3223 6.2985 16.6432 5.30925 17.0565C4.8675 15.7455 4.59375 14.2913 4.5255 12.75H8.2605ZM4.6275 17.3542C3.98477 17.6628 3.36867 18.0241 2.7855 18.4342C1.61128 16.7584 0.920356 14.792 0.78825 12.75H3.77625C3.84675 14.397 4.1445 15.9525 4.6275 17.3542ZM3.23475 19.035C3.75965 18.6653 4.31315 18.3381 4.89 18.0563C5.643 19.92 6.72675 21.4673 8.0295 22.5135C6.15007 21.8015 4.49482 20.6007 3.23475 19.035ZM15.9705 22.5128C17.274 21.4673 18.357 19.9193 19.11 18.0555C19.7025 18.3435 20.2515 18.675 20.7653 19.0343C19.5056 20.6004 17.8502 21.8013 15.9705 22.5128ZM20.25 12C20.25 10.0747 19.929 8.25975 19.3725 6.64575C20.0325 6.32925 20.646 5.9655 21.2153 5.56575C22.5399 7.44979 23.2505 9.69689 23.25 12H20.25ZM20.766 4.965C20.2522 5.32425 19.7033 5.65575 19.1108 5.94375C18.3577 4.08 17.274 2.532 15.9713 1.4865C17.8505 2.19885 19.5056 3.39964 20.766 4.965ZM8.0295 1.48725C6.726 2.53275 5.643 4.08075 4.89 5.9445C4.31319 5.66233 3.7597 5.3348 3.23475 4.965C4.49467 3.39933 6.14999 2.19868 8.0295 1.48725ZM2.7855 5.56575C3.36857 5.97608 3.98469 6.33732 4.6275 6.64575C4.04094 8.3697 3.74441 10.179 3.75 12H0.75C0.75 9.6075 1.50675 7.39125 2.7855 5.56575Z" fill="white"/>
</svg>
