<svg width="26" height="24" viewBox="0 0 26 24" fill="none" xmlns="http://www.w3.org/2000/svg">
<path d="M25.9862 2.45454C26.0117 2.24313 25.9898 2.02629 25.9232 1.83167C25.7185 0.623454 25.068 0 23.9688 0H2.84375C1.87687 0 0.835225 0.477272 0.322969 1.41382C0.278662 1.45909 0.236412 1.51036 0.19825 1.56982C0.0345059 1.82345 -0.0227754 2.14967 0.0138125 2.4573C0.0065 2.54567 0 2.63458 0 2.7273V20.1818C0 21.9895 1.49784 24 2.84375 24H23.9688C25.3151 24 26 21.9895 26 20.1818V2.7273C26 2.63076 25.9907 2.54618 25.9862 2.45454H25.9862ZM2.84365 2.18182L23.9687 2.18178H23.9796L12.9999 13.9314L2.06449 2.22978C2.31311 2.16814 2.61902 2.18182 2.84362 2.18182H2.84365ZM23.9687 21.8181H2.8437C2.39561 21.8181 1.62495 20.7839 1.62495 20.1818V4.55287L12.4678 16.1999C12.6205 16.3772 12.8102 16.4656 12.9999 16.4656C13.1955 16.4658 13.3845 16.3715 13.5325 16.1999L24.3749 4.55341V20.1818C24.3749 20.7839 24.4172 21.8181 23.9687 21.8181Z" fill="white"/>
</svg>
