<svg width="24" height="24" viewBox="0 0 24 24" fill="none" xmlns="http://www.w3.org/2000/svg">
<path d="M5.99755 5.39778e-08C6.24377 -7.37671e-05 6.48404 0.0755735 6.68575 0.216671C6.88746 0.357768 7.04083 0.557479 7.12503 0.788687L10.5818 10.2889L9.25044 13.6426L8.64712 11.9861H3.34918L2.32726 14.7933C2.21846 15.0921 1.99534 15.3355 1.70697 15.4699C1.41859 15.6043 1.0886 15.6188 0.789572 15.51C0.490547 15.4013 0.246987 15.1784 0.112474 14.8902C-0.0220401 14.602 -0.0364892 14.2722 0.0723052 13.9734L4.87128 0.788687C4.95548 0.557479 5.10885 0.357768 5.31056 0.216671C5.51227 0.0755735 5.75254 -7.37671e-05 5.99875 5.39778e-08H5.99755ZM4.22238 9.5889H7.77513L5.99755 4.70575L4.22118 9.5889H4.22238ZM16.0345 5.42732C15.9461 5.20375 15.7924 5.01192 15.5935 4.87673C15.3946 4.74155 15.1596 4.66926 14.919 4.66926C14.6785 4.66926 14.4434 4.74155 14.2445 4.87673C14.0456 5.01192 13.892 5.20375 13.8035 5.42732L7.37811 21.6014H7.1982C6.88009 21.6014 6.575 21.7277 6.35006 21.9525C6.12512 22.1772 5.99875 22.4821 5.99875 22.8C5.99875 23.1179 6.12512 23.4228 6.35006 23.6475C6.575 23.8723 6.88009 23.9986 7.1982 23.9986H8.16855C8.18454 23.999 8.20053 23.999 8.21653 23.9986H10.7953C11.1134 23.9986 11.4185 23.8723 11.6435 23.6475C11.8684 23.4228 11.9948 23.1179 11.9948 22.8C11.9948 22.4821 11.8684 22.1772 11.6435 21.9525C11.4185 21.7277 11.1134 21.6014 10.7953 21.6014H9.95932L10.9225 19.1778H18.9024L19.8619 21.6026H19.1914C18.8733 21.6026 18.5682 21.7289 18.3433 21.9537C18.1184 22.1784 17.992 22.4833 17.992 22.8012C17.992 23.1191 18.1184 23.424 18.3433 23.6487C18.5682 23.8735 18.8733 23.9998 19.1914 23.9998H21.6071C21.6211 24.0001 21.6351 24.0001 21.6491 23.9998H22.8006C23.1187 23.9998 23.4237 23.8735 23.6487 23.6487C23.8736 23.424 24 23.1191 24 22.8012C24 22.4833 23.8736 22.1784 23.6487 21.9537C23.4237 21.7289 23.1187 21.6026 22.8006 21.6026H22.4431L16.0345 5.42732ZM17.9524 16.7806H11.8748L14.9178 9.12144L17.9524 16.7806Z" fill="white"/>
</svg>
