<svg width="28" height="34" viewBox="0 0 28 34" fill="none" xmlns="http://www.w3.org/2000/svg">
<path d="M20.9928 8.5H4.66506C3.37684 8.5 2.33253 9.76853 2.33253 11.3333V22.6667C2.33253 24.2315 3.37684 25.5 4.66506 25.5H20.9928C22.281 25.5 23.3253 24.2315 23.3253 22.6667V11.3333C23.3253 9.76853 22.281 8.5 20.9928 8.5Z" stroke="black" stroke-width="2" stroke-linecap="round" stroke-linejoin="round"/>
<path d="M13.2954 12.75L10.4964 17H15.1614L12.3624 21.25M23.3253 14.1667H25.0747C25.2293 14.1667 25.3777 14.2413 25.487 14.3741C25.5964 14.507 25.6578 14.6871 25.6578 14.875V19.125C25.6578 19.3129 25.5964 19.493 25.487 19.6259C25.3777 19.7587 25.2293 19.8333 25.0747 19.8333H23.3253V14.1667Z" stroke="black" stroke-width="2" stroke-linecap="round" stroke-linejoin="round"/>
</svg>
