<svg width="26" height="26" viewBox="0 0 26 26" fill="none" xmlns="http://www.w3.org/2000/svg">
<g clip-path="url(#clip0_32_20)">
<mask id="path-1-inside-1_32_20" fill="white">
<path d="M7 2C6.46957 2 5.96086 2.21071 5.58578 2.58579C5.21071 2.96086 5 3.46957 5 4V22C5 22.5304 5.21071 23.0391 5.58578 23.4142C5.96086 23.7893 6.46957 24 7 24H19C19.5304 24 20.0391 23.7893 20.4142 23.4142C20.7893 23.0391 21 22.5304 21 22V4C21 3.46957 20.7893 2.96086 20.4142 2.58579C20.0391 2.21071 19.5304 2 19 2H7ZM10 3.938C11.132 3.938 12.063 4.868 12.063 6C12.0604 6.54633 11.8422 7.06954 11.4559 7.45586C11.0695 7.84218 10.5463 8.06037 10 8.063C9.45359 8.06063 8.93023 7.84252 8.54385 7.45614C8.15748 7.06977 7.93937 6.54641 7.937 6C7.937 4.868 8.868 3.937 10 3.937V3.938ZM2.437 4C2.37938 3.99946 2.32223 4.01043 2.2689 4.03227C2.21557 4.0541 2.16714 4.08636 2.12644 4.12715C2.08574 4.16795 2.0536 4.21645 2.03188 4.26983C2.01017 4.32321 1.99933 4.38038 2 4.438V5H0.436999C0.379377 4.99946 0.322229 5.01043 0.268902 5.03227C0.215575 5.0541 0.167142 5.08636 0.126443 5.12715C0.085743 5.16795 0.053595 5.21645 0.0318828 5.26983C0.0101705 5.32321 -0.000669325 5.38038 -1.429e-06 5.438V6.563C-1.429e-06 6.809 0.192999 7 0.437999 7H2V7.563C2 7.808 2.192 8 2.438 8H3.562C3.6197 8.00067 3.67696 7.9898 3.7304 7.96802C3.78385 7.94625 3.8324 7.91401 3.8732 7.87321C3.91401 7.8324 3.94625 7.78385 3.96802 7.73041C3.9898 7.67696 4.00067 7.6197 4 7.562V4.438C4.00067 4.3803 3.9898 4.32304 3.96802 4.26959C3.94625 4.21615 3.91401 4.1676 3.8732 4.12679C3.8324 4.08599 3.78385 4.05375 3.7304 4.03198C3.67696 4.0102 3.6197 3.99933 3.562 4H2.438H2.437ZM22.437 4C22.3794 3.99946 22.3222 4.01043 22.2689 4.03227C22.2156 4.0541 22.1671 4.08636 22.1264 4.12715C22.0857 4.16795 22.0536 4.21645 22.0319 4.26983C22.0102 4.32321 21.9993 4.38038 22 4.438V7.563C22 7.808 22.192 8 22.438 8H23.563C23.6206 8.00054 23.6778 7.98957 23.7311 7.96773C23.7844 7.9459 23.8329 7.91364 23.8736 7.87285C23.9143 7.83205 23.9464 7.78355 23.9681 7.73017C23.9898 7.67679 24.0007 7.61962 24 7.562V7H25.563C25.6206 7.00054 25.6778 6.98957 25.7311 6.96773C25.7844 6.9459 25.8329 6.91364 25.8736 6.87285C25.9143 6.83205 25.9464 6.78355 25.9681 6.73017C25.9898 6.67679 26.0007 6.61962 26 6.562V5.438C26.0007 5.3803 25.9898 5.32304 25.968 5.26959C25.9462 5.21615 25.914 5.1676 25.8732 5.12679C25.8324 5.08599 25.7838 5.05375 25.7304 5.03198C25.677 5.0102 25.6197 4.99933 25.562 5H24V4.437C24.0005 4.37938 23.9896 4.32223 23.9677 4.2689C23.9459 4.21558 23.9136 4.16714 23.8728 4.12644C23.8321 4.08574 23.7835 4.0536 23.7302 4.03188C23.6768 4.01017 23.6196 3.99933 23.562 4H22.437ZM2.437 11C2.37938 10.9995 2.32223 11.0104 2.2689 11.0323C2.21557 11.0541 2.16714 11.0864 2.12644 11.1272C2.08574 11.1679 2.0536 11.2165 2.03188 11.2698C2.01017 11.3232 1.99933 11.3804 2 11.438V12H0.436999C0.379377 11.9995 0.322229 12.0104 0.268902 12.0323C0.215575 12.0541 0.167142 12.0864 0.126443 12.1272C0.085743 12.1679 0.053595 12.2165 0.0318828 12.2698C0.0101705 12.3232 -0.000669325 12.3804 -1.429e-06 12.438V13.562C-1.429e-06 13.809 0.192999 14 0.437999 14H2V14.563C2 14.807 2.192 15 2.438 15H3.562C3.6197 15.0007 3.67696 14.9898 3.7304 14.968C3.78385 14.9462 3.8324 14.914 3.8732 14.8732C3.91401 14.8324 3.94625 14.7838 3.96802 14.7304C3.9898 14.677 4.00067 14.6197 4 14.562V11.438C4.00067 11.3803 3.9898 11.323 3.96802 11.2696C3.94625 11.2162 3.91401 11.1676 3.8732 11.1268C3.8324 11.086 3.78385 11.0538 3.7304 11.032C3.67696 11.0102 3.6197 10.9993 3.562 11H2.438H2.437ZM22.437 11C22.3794 10.9995 22.3222 11.0104 22.2689 11.0323C22.2156 11.0541 22.1671 11.0864 22.1264 11.1272C22.0857 11.1679 22.0536 11.2165 22.0319 11.2698C22.0102 11.3232 21.9993 11.3804 22 11.438V14.562C22 14.807 22.192 15 22.438 15H23.563C23.6206 15.0005 23.6778 14.9896 23.7311 14.9677C23.7844 14.9459 23.8329 14.9136 23.8736 14.8728C23.9143 14.8321 23.9464 14.7835 23.9681 14.7302C23.9898 14.6768 24.0007 14.6196 24 14.562V14H25.563C25.6206 14.0005 25.6778 13.9896 25.7311 13.9677C25.7844 13.9459 25.8329 13.9136 25.8736 13.8728C25.9143 13.8321 25.9464 13.7835 25.9681 13.7302C25.9898 13.6768 26.0007 13.6196 26 13.562V12.438C26.0007 12.3803 25.9898 12.323 25.968 12.2696C25.9462 12.2162 25.914 12.1676 25.8732 12.1268C25.8324 12.086 25.7838 12.0538 25.7304 12.032C25.677 12.0102 25.6197 11.9993 25.562 12H24V11.437C24.0005 11.3794 23.9896 11.3222 23.9677 11.2689C23.9459 11.2156 23.9136 11.1671 23.8728 11.1264C23.8321 11.0857 23.7835 11.0536 23.7302 11.0319C23.6768 11.0102 23.6196 10.9993 23.562 11H22.437ZM2.437 18C2.37938 17.9995 2.32223 18.0104 2.2689 18.0323C2.21557 18.0541 2.16714 18.0864 2.12644 18.1272C2.08574 18.1679 2.0536 18.2165 2.03188 18.2698C2.01017 18.3232 1.99933 18.3804 2 18.438V19H0.436999C0.379377 18.9995 0.322229 19.0104 0.268902 19.0323C0.215575 19.0541 0.167142 19.0864 0.126443 19.1272C0.085743 19.1679 0.053595 19.2165 0.0318828 19.2698C0.0101705 19.3232 -0.000669325 19.3804 -1.429e-06 19.438V20.563C-1.429e-06 20.808 0.192999 21 0.437999 21H2V21.563C2 21.808 2.192 22 2.438 22H3.562C3.6197 22.0007 3.67696 21.9898 3.7304 21.968C3.78385 21.9463 3.8324 21.914 3.8732 21.8732C3.91401 21.8324 3.94625 21.7838 3.96802 21.7304C3.9898 21.677 4.00067 21.6197 4 21.562V18.437C4.00053 18.3794 3.98956 18.3222 3.96773 18.2689C3.9459 18.2156 3.91364 18.1671 3.87284 18.1264C3.83205 18.0857 3.78355 18.0536 3.73017 18.0319C3.67679 18.0102 3.61962 17.9993 3.562 18H2.438H2.437ZM22.437 18C22.3794 17.9995 22.3222 18.0104 22.2689 18.0323C22.2156 18.0541 22.1671 18.0864 22.1264 18.1272C22.0857 18.1679 22.0536 18.2165 22.0319 18.2698C22.0102 18.3232 21.9993 18.3804 22 18.438V21.563C22 21.808 22.192 22 22.438 22H23.563C23.6206 22.0005 23.6778 21.9896 23.7311 21.9677C23.7844 21.9459 23.8329 21.9136 23.8736 21.8728C23.9143 21.8321 23.9464 21.7835 23.9681 21.7302C23.9898 21.6768 24.0007 21.6196 24 21.562V21H25.563C25.6206 21.0005 25.6778 20.9896 25.7311 20.9677C25.7844 20.9459 25.8329 20.9136 25.8736 20.8728C25.9143 20.8321 25.9464 20.7835 25.9681 20.7302C25.9898 20.6768 26.0007 20.6196 26 20.562V19.437C26.0005 19.3794 25.9896 19.3222 25.9677 19.2689C25.9459 19.2156 25.9136 19.1671 25.8728 19.1264C25.8321 19.0857 25.7835 19.0536 25.7302 19.0319C25.6768 19.0102 25.6196 18.9993 25.562 19H24V18.437C24.0005 18.3794 23.9896 18.3222 23.9677 18.2689C23.9459 18.2156 23.9136 18.1671 23.8728 18.1264C23.8321 18.0857 23.7835 18.0536 23.7302 18.0319C23.6768 18.0102 23.6196 17.9993 23.562 18H22.437Z"/>
</mask>
<path d="M7 2C6.46957 2 5.96086 2.21071 5.58578 2.58579C5.21071 2.96086 5 3.46957 5 4V22C5 22.5304 5.21071 23.0391 5.58578 23.4142C5.96086 23.7893 6.46957 24 7 24H19C19.5304 24 20.0391 23.7893 20.4142 23.4142C20.7893 23.0391 21 22.5304 21 22V4C21 3.46957 20.7893 2.96086 20.4142 2.58579C20.0391 2.21071 19.5304 2 19 2H7ZM10 3.938C11.132 3.938 12.063 4.868 12.063 6C12.0604 6.54633 11.8422 7.06954 11.4559 7.45586C11.0695 7.84218 10.5463 8.06037 10 8.063C9.45359 8.06063 8.93023 7.84252 8.54385 7.45614C8.15748 7.06977 7.93937 6.54641 7.937 6C7.937 4.868 8.868 3.937 10 3.937V3.938ZM2.437 4C2.37938 3.99946 2.32223 4.01043 2.2689 4.03227C2.21557 4.0541 2.16714 4.08636 2.12644 4.12715C2.08574 4.16795 2.0536 4.21645 2.03188 4.26983C2.01017 4.32321 1.99933 4.38038 2 4.438V5H0.436999C0.379377 4.99946 0.322229 5.01043 0.268902 5.03227C0.215575 5.0541 0.167142 5.08636 0.126443 5.12715C0.085743 5.16795 0.053595 5.21645 0.0318828 5.26983C0.0101705 5.32321 -0.000669325 5.38038 -1.429e-06 5.438V6.563C-1.429e-06 6.809 0.192999 7 0.437999 7H2V7.563C2 7.808 2.192 8 2.438 8H3.562C3.6197 8.00067 3.67696 7.9898 3.7304 7.96802C3.78385 7.94625 3.8324 7.91401 3.8732 7.87321C3.91401 7.8324 3.94625 7.78385 3.96802 7.73041C3.9898 7.67696 4.00067 7.6197 4 7.562V4.438C4.00067 4.3803 3.9898 4.32304 3.96802 4.26959C3.94625 4.21615 3.91401 4.1676 3.8732 4.12679C3.8324 4.08599 3.78385 4.05375 3.7304 4.03198C3.67696 4.0102 3.6197 3.99933 3.562 4H2.438H2.437ZM22.437 4C22.3794 3.99946 22.3222 4.01043 22.2689 4.03227C22.2156 4.0541 22.1671 4.08636 22.1264 4.12715C22.0857 4.16795 22.0536 4.21645 22.0319 4.26983C22.0102 4.32321 21.9993 4.38038 22 4.438V7.563C22 7.808 22.192 8 22.438 8H23.563C23.6206 8.00054 23.6778 7.98957 23.7311 7.96773C23.7844 7.9459 23.8329 7.91364 23.8736 7.87285C23.9143 7.83205 23.9464 7.78355 23.9681 7.73017C23.9898 7.67679 24.0007 7.61962 24 7.562V7H25.563C25.6206 7.00054 25.6778 6.98957 25.7311 6.96773C25.7844 6.9459 25.8329 6.91364 25.8736 6.87285C25.9143 6.83205 25.9464 6.78355 25.9681 6.73017C25.9898 6.67679 26.0007 6.61962 26 6.562V5.438C26.0007 5.3803 25.9898 5.32304 25.968 5.26959C25.9462 5.21615 25.914 5.1676 25.8732 5.12679C25.8324 5.08599 25.7838 5.05375 25.7304 5.03198C25.677 5.0102 25.6197 4.99933 25.562 5H24V4.437C24.0005 4.37938 23.9896 4.32223 23.9677 4.2689C23.9459 4.21558 23.9136 4.16714 23.8728 4.12644C23.8321 4.08574 23.7835 4.0536 23.7302 4.03188C23.6768 4.01017 23.6196 3.99933 23.562 4H22.437ZM2.437 11C2.37938 10.9995 2.32223 11.0104 2.2689 11.0323C2.21557 11.0541 2.16714 11.0864 2.12644 11.1272C2.08574 11.1679 2.0536 11.2165 2.03188 11.2698C2.01017 11.3232 1.99933 11.3804 2 11.438V12H0.436999C0.379377 11.9995 0.322229 12.0104 0.268902 12.0323C0.215575 12.0541 0.167142 12.0864 0.126443 12.1272C0.085743 12.1679 0.053595 12.2165 0.0318828 12.2698C0.0101705 12.3232 -0.000669325 12.3804 -1.429e-06 12.438V13.562C-1.429e-06 13.809 0.192999 14 0.437999 14H2V14.563C2 14.807 2.192 15 2.438 15H3.562C3.6197 15.0007 3.67696 14.9898 3.7304 14.968C3.78385 14.9462 3.8324 14.914 3.8732 14.8732C3.91401 14.8324 3.94625 14.7838 3.96802 14.7304C3.9898 14.677 4.00067 14.6197 4 14.562V11.438C4.00067 11.3803 3.9898 11.323 3.96802 11.2696C3.94625 11.2162 3.91401 11.1676 3.8732 11.1268C3.8324 11.086 3.78385 11.0538 3.7304 11.032C3.67696 11.0102 3.6197 10.9993 3.562 11H2.438H2.437ZM22.437 11C22.3794 10.9995 22.3222 11.0104 22.2689 11.0323C22.2156 11.0541 22.1671 11.0864 22.1264 11.1272C22.0857 11.1679 22.0536 11.2165 22.0319 11.2698C22.0102 11.3232 21.9993 11.3804 22 11.438V14.562C22 14.807 22.192 15 22.438 15H23.563C23.6206 15.0005 23.6778 14.9896 23.7311 14.9677C23.7844 14.9459 23.8329 14.9136 23.8736 14.8728C23.9143 14.8321 23.9464 14.7835 23.9681 14.7302C23.9898 14.6768 24.0007 14.6196 24 14.562V14H25.563C25.6206 14.0005 25.6778 13.9896 25.7311 13.9677C25.7844 13.9459 25.8329 13.9136 25.8736 13.8728C25.9143 13.8321 25.9464 13.7835 25.9681 13.7302C25.9898 13.6768 26.0007 13.6196 26 13.562V12.438C26.0007 12.3803 25.9898 12.323 25.968 12.2696C25.9462 12.2162 25.914 12.1676 25.8732 12.1268C25.8324 12.086 25.7838 12.0538 25.7304 12.032C25.677 12.0102 25.6197 11.9993 25.562 12H24V11.437C24.0005 11.3794 23.9896 11.3222 23.9677 11.2689C23.9459 11.2156 23.9136 11.1671 23.8728 11.1264C23.8321 11.0857 23.7835 11.0536 23.7302 11.0319C23.6768 11.0102 23.6196 10.9993 23.562 11H22.437ZM2.437 18C2.37938 17.9995 2.32223 18.0104 2.2689 18.0323C2.21557 18.0541 2.16714 18.0864 2.12644 18.1272C2.08574 18.1679 2.0536 18.2165 2.03188 18.2698C2.01017 18.3232 1.99933 18.3804 2 18.438V19H0.436999C0.379377 18.9995 0.322229 19.0104 0.268902 19.0323C0.215575 19.0541 0.167142 19.0864 0.126443 19.1272C0.085743 19.1679 0.053595 19.2165 0.0318828 19.2698C0.0101705 19.3232 -0.000669325 19.3804 -1.429e-06 19.438V20.563C-1.429e-06 20.808 0.192999 21 0.437999 21H2V21.563C2 21.808 2.192 22 2.438 22H3.562C3.6197 22.0007 3.67696 21.9898 3.7304 21.968C3.78385 21.9463 3.8324 21.914 3.8732 21.8732C3.91401 21.8324 3.94625 21.7838 3.96802 21.7304C3.9898 21.677 4.00067 21.6197 4 21.562V18.437C4.00053 18.3794 3.98956 18.3222 3.96773 18.2689C3.9459 18.2156 3.91364 18.1671 3.87284 18.1264C3.83205 18.0857 3.78355 18.0536 3.73017 18.0319C3.67679 18.0102 3.61962 17.9993 3.562 18H2.438H2.437ZM22.437 18C22.3794 17.9995 22.3222 18.0104 22.2689 18.0323C22.2156 18.0541 22.1671 18.0864 22.1264 18.1272C22.0857 18.1679 22.0536 18.2165 22.0319 18.2698C22.0102 18.3232 21.9993 18.3804 22 18.438V21.563C22 21.808 22.192 22 22.438 22H23.563C23.6206 22.0005 23.6778 21.9896 23.7311 21.9677C23.7844 21.9459 23.8329 21.9136 23.8736 21.8728C23.9143 21.8321 23.9464 21.7835 23.9681 21.7302C23.9898 21.6768 24.0007 21.6196 24 21.562V21H25.563C25.6206 21.0005 25.6778 20.9896 25.7311 20.9677C25.7844 20.9459 25.8329 20.9136 25.8736 20.8728C25.9143 20.8321 25.9464 20.7835 25.9681 20.7302C25.9898 20.6768 26.0007 20.6196 26 20.562V19.437C26.0005 19.3794 25.9896 19.3222 25.9677 19.2689C25.9459 19.2156 25.9136 19.1671 25.8728 19.1264C25.8321 19.0857 25.7835 19.0536 25.7302 19.0319C25.6768 19.0102 25.6196 18.9993 25.562 19H24V18.437C24.0005 18.3794 23.9896 18.3222 23.9677 18.2689C23.9459 18.2156 23.9136 18.1671 23.8728 18.1264C23.8321 18.0857 23.7835 18.0536 23.7302 18.0319C23.6768 18.0102 23.6196 17.9993 23.562 18H22.437Z" stroke="black" stroke-width="2" mask="url(#path-1-inside-1_32_20)"/>
</g>
<defs>
<clipPath id="clip0_32_20">
<rect width="26" height="26" fill="white"/>
</clipPath>
</defs>
</svg>
