<svg width="28" height="26" viewBox="0 0 28 26" fill="none" xmlns="http://www.w3.org/2000/svg">
<g clip-path="url(#clip0_10_43)">
<path d="M21.7703 21.7497H4.66506V6.4719H14.9437L16.4988 5.08301H4.66506C4.25264 5.08301 3.85712 5.22934 3.56549 5.4898C3.27387 5.75027 3.11004 6.10354 3.11004 6.4719V21.7497C3.11004 22.118 3.27387 22.4713 3.56549 22.7318C3.85712 22.9922 4.25264 23.1386 4.66506 23.1386H21.7703C22.1827 23.1386 22.5782 22.9922 22.8698 22.7318C23.1615 22.4713 23.3253 22.118 23.3253 21.7497V11.333L21.7703 12.7219V21.7497Z" fill="black"/>
<path d="M26.0699 4.97205L23.4497 2.63178C23.3334 2.52763 23.1953 2.445 23.0432 2.38862C22.8911 2.33224 22.728 2.30322 22.5633 2.30322C22.3987 2.30322 22.2356 2.33224 22.0835 2.38862C21.9314 2.445 21.7933 2.52763 21.677 2.63178L11.0173 12.2082L10.1543 15.5484C10.1175 15.7104 10.1214 15.8775 10.1656 16.038C10.2098 16.1984 10.2933 16.3481 10.41 16.4762C10.5268 16.6044 10.6738 16.7079 10.8407 16.7792C11.0075 16.8505 11.19 16.8879 11.375 16.8887C11.4706 16.8981 11.567 16.8981 11.6626 16.8887L15.4336 16.1457L26.0699 6.55539C26.1865 6.45153 26.279 6.32814 26.3421 6.19229C26.4053 6.05644 26.4378 5.9108 26.4378 5.76372C26.4378 5.61664 26.4053 5.471 26.3421 5.33515C26.279 5.1993 26.1865 5.07592 26.0699 4.97205ZM14.625 14.8609L11.7793 15.4234L12.4402 12.9026L20.4641 5.68733L22.6566 7.64567L14.625 14.8609ZM23.5352 6.86094L21.3426 4.90261L22.5478 3.80539L24.7559 5.77761L23.5352 6.86094Z" fill="black"/>
</g>
<defs>
<clipPath id="clip0_10_43">
<rect width="27.9904" height="25" fill="white" transform="translate(0 0.916504)"/>
</clipPath>
</defs>
</svg>
