<svg width="28" height="34" viewBox="0 0 28 34" fill="none" xmlns="http://www.w3.org/2000/svg">
<path d="M4.66505 5.66683V28.3335C4.66505 29.0849 4.9108 29.8056 5.34824 30.337C5.78567 30.8683 6.37896 31.1668 6.99758 31.1668H20.9928C21.6114 31.1668 22.2047 30.8683 22.6421 30.337C23.0795 29.8056 23.3253 29.0849 23.3253 28.3335V11.818C23.3253 11.4405 23.2631 11.0669 23.1426 10.719C23.022 10.3711 22.8454 10.056 22.6232 9.79216L17.445 3.641C17.0092 3.12343 16.424 2.83359 15.8145 2.8335H6.99758C6.37896 2.8335 5.78567 3.13201 5.34824 3.66336C4.9108 4.19471 4.66505 4.91538 4.66505 5.66683V5.66683Z" stroke="black" stroke-width="2" stroke-linecap="round" stroke-linejoin="round"/>
<path d="M16.3277 2.8335V8.50016C16.3277 9.25161 16.5734 9.97228 17.0109 10.5036C17.4483 11.035 18.0416 11.3335 18.6602 11.3335H23.3253" stroke="black" stroke-width="2" stroke-linejoin="round"/>
</svg>
