<svg width="28" height="34" viewBox="0 0 28 34" fill="none" xmlns="http://www.w3.org/2000/svg">
<path d="M5.37415 27.4719L6.77366 20.7399L15.1148 10.6079L19.2574 15.6399L10.9162 25.7719L5.37415 27.4719ZM7.78132 21.4199L6.9416 25.5679L10.3564 24.5479L17.6899 15.6399L15.1148 12.5119L7.78132 21.4199Z" fill="black"/>
<path d="M9.96456 25.364C9.62867 23.664 8.50906 22.304 7.10954 21.896L7.38945 20.604C9.18083 21.148 10.5803 22.848 11.0282 25.024L9.96456 25.364Z" fill="black"/>
<path d="M16.4012 13.1153L17.1928 14.0768L9.90971 22.9304L9.11814 21.9716L16.4012 13.1153ZM6.15788 26.5202L7.78132 26.0442C7.61338 25.2962 7.16554 24.7522 6.54975 24.5482L6.15788 26.5202ZM19.5933 15.2322L15.4507 10.2002L17.1301 8.16016L17.41 8.22816C19.4253 8.56816 20.9928 10.4722 21.2727 12.9202L21.3287 13.2602L19.5933 15.2322ZM17.0181 10.2002L19.5933 13.3282L20.0971 12.7162C19.8172 11.1522 18.8095 9.92816 17.522 9.58816L17.0181 10.2002Z" fill="black"/>
</svg>
