<svg width="28" height="34" viewBox="0 0 28 34" fill="none" xmlns="http://www.w3.org/2000/svg">
<path d="M21.8675 15.75H17.494V17.875H21.8675C22.0994 17.875 22.3219 17.9869 22.486 18.1862C22.65 18.3855 22.7422 18.6557 22.7422 18.9375V21.0625H19.2434C18.5476 21.0633 17.8806 21.3994 17.3886 21.997C16.8967 22.5946 16.62 23.4049 16.6193 24.25V25.3125C16.62 26.1576 16.8967 26.9679 17.3886 27.5655C17.8806 28.1631 18.5476 28.4992 19.2434 28.5H24.4916V18.9375C24.4909 18.0924 24.2142 17.2821 23.7222 16.6845C23.2303 16.0869 22.5632 15.7508 21.8675 15.75ZM19.2434 26.375C19.0114 26.375 18.7889 26.2631 18.6249 26.0638C18.4608 25.8645 18.3687 25.5943 18.3687 25.3125V24.25C18.3687 23.9682 18.4608 23.698 18.6249 23.4987C18.7889 23.2994 19.0114 23.1875 19.2434 23.1875H22.7422V26.375H19.2434ZM13.9952 28.5H15.7446L10.4964 10.4375H8.74699L3.49879 28.5H5.24819L6.72993 23.1875H12.5143L13.9952 28.5ZM7.3221 21.0625L9.50622 13.2308H9.73889L11.9221 21.0625H7.3221Z" fill="black"/>
</svg>
